<svg xmlns="http://www.w3.org/2000/svg" viewBox="0 0 128 128" role="img" aria-label="UD<">
  <ellipse cx="64" cy="92" rx="34" ry="10" fill="#000" opacity="0.12"/>
  <ellipse cx="64" cy="72" rx="36" ry="34" fill="#7c3aed"/>
  <ellipse cx="64" cy="74" rx="30" ry="28" fill="#8b5cf6"/>
  <circle cx="64" cy="42" r="30" fill="#7c3aed"/>
  <circle cx="64" cy="44" r="26" fill="#a78bfa"/>
  <path d="M38 24 L30 6 L44 20 Z" fill="#fbbf24"/>
  <path d="M90 24 L98 6 L84 20 Z" fill="#fbbf24"/>
  <ellipse cx="52" cy="42" rx="9" ry="11" fill="#fff"/>
  <ellipse cx="76" cy="42" rx="9" ry="11" fill="#fff"/>
  <circle cx="54" cy="44" r="5" fill="#1e1b4b"/>
  <circle cx="78" cy="44" r="5" fill="#1e1b4b"/>
  <circle cx="56" cy="42" r="1.8" fill="#fff"/>
  <circle cx="80" cy="42" r="1.8" fill="#fff"/>
  <ellipse cx="64" cy="56" rx="10" ry="7" fill="#5b21b6"/>
  <path d="M58 56 Q64 62 70 56" fill="none" stroke="#312e81" stroke-width="2" stroke-linecap="round"/>
  <path d="M56 58 L58 62 L60 58 Z" fill="#fff"/>
  <path d="M68 58 L70 62 L72 58 Z" fill="#fff"/>
  <ellipse cx="42" cy="78" rx="8" ry="10" fill="#a78bfa"/>
  <ellipse cx="86" cy="78" rx="8" ry="10" fill="#a78bfa"/>
  <rect x="48" y="88" width="32" height="14" rx="7" fill="#22c55e"/>
  <rect x="52" y="90" width="24" height="4" rx="2" fill="#86efac"/>
  <ellipse cx="52" cy="104" rx="10" ry="6" fill="#6d28d9"/>
  <ellipse cx="76" cy="104" rx="10" ry="6" fill="#6d28d9"/>
</svg>
