<svg xmlns="http://www.w3.org/2000/svg" viewBox="0 0 128 128" role="img" aria-label="oni-minion">
  <ellipse cx="64" cy="98" rx="28" ry="8" fill="#000000" opacity="0.14"/>
  <!-- body -->
  <ellipse cx="64" cy="78" rx="30" ry="28" fill="#dc2626"/>
  <ellipse cx="64" cy="80" rx="24" ry="22" fill="#ef4444"/>
  <!-- head -->
  <circle cx="64" cy="46" r="28" fill="#dc2626"/>
  <circle cx="64" cy="48" r="24" fill="#f87171"/>
  <!-- horns -->
  <path d="M40 30 L34 10 L48 24 Z" fill="#fbbf24" stroke="#d97706" stroke-width="1.5"/>
  <path d="M88 30 L94 10 L80 24 Z" fill="#fbbf24" stroke="#d97706" stroke-width="1.5"/>
  <!-- angry brows -->
  <path d="M46 38 L58 42" stroke="#7f1d1d" stroke-width="3" stroke-linecap="round"/>
  <path d="M82 38 L70 42" stroke="#7f1d1d" stroke-width="3" stroke-linecap="round"/>
  <!-- eyes -->
  <ellipse cx="52" cy="46" rx="8" ry="10" fill="#ffffff"/>
  <ellipse cx="76" cy="46" rx="8" ry="10" fill="#ffffff"/>
  <circle cx="54" cy="48" r="5" fill="#111827"/>
  <circle cx="78" cy="48" r="5" fill="#111827"/>
  <circle cx="56" cy="46" r="1.6" fill="#ffffff"/>
  <circle cx="80" cy="46" r="1.6" fill="#ffffff"/>
  <!-- mouth -->
  <path d="M54 58 Q64 66 74 58" fill="none" stroke="#7f1d1d" stroke-width="2.5" stroke-linecap="round"/>
  <path d="M58 60 L60 64 L62 60 Z" fill="#ffffff"/>
  <path d="M66 60 L68 64 L70 60 Z" fill="#ffffff"/>
  <!-- tiger pants -->
  <path d="M40 84 Q64 96 88 84 L86 104 Q64 112 42 104 Z" fill="#fbbf24"/>
  <path d="M48 88 L52 100 M56 86 L60 102 M68 86 L72 102 M76 88 L80 100" stroke="#111827" stroke-width="2.5" stroke-linecap="round"/>
  <!-- arms -->
  <ellipse cx="36" cy="76" rx="9" ry="11" fill="#ef4444"/>
  <ellipse cx="92" cy="76" rx="9" ry="11" fill="#ef4444"/>
  <!-- tiny club -->
  <rect x="94" y="58" width="8" height="22" rx="3" fill="#92400e"/>
  <circle cx="98" cy="54" r="9" fill="#78350f"/>
  <circle cx="96" cy="52" r="2.5" fill="#a16207"/>
  <circle cx="100" cy="56" r="2" fill="#a16207"/>
  <!-- feet -->
  <ellipse cx="52" cy="108" rx="11" ry="6" fill="#b91c1c"/>
  <ellipse cx="76" cy="108" rx="11" ry="6" fill="#b91c1c"/>
</svg>
